<svg width="513" height="307" viewBox="0 0 513 307" fill="none" xmlns="http://www.w3.org/2000/svg">
<g clip-path="url(#clip0_1_3)">
<path d="M0 25.7733C0 25.7733 80.7186 28.7187 138.79 79.3239V137.287C138.79 137.287 104.66 54.812 0.232823 40.2551L0 25.7733Z" fill="#784794"/>
<path d="M187.087 30.7034V79.0077C145.718 50.7667 98.3368 32.596 48.7192 25.9433V11.3153C48.7192 11.3153 142.756 15.593 187.087 30.7232" fill="#784794"/>
<path d="M238.024 5.9303C202.556 4.16703 119.509 0 119.509 0L119.553 11.2953C119.553 11.2953 187.687 17.3204 238.253 30.7032L238.024 5.9303Z" fill="#784794"/>
<path d="M210.978 134.714H203.654L189.396 111.326V134.714H182.072V99.1674H189.396L203.679 122.605V99.1674H210.978V134.714ZM245.28 122.873C245.004 126.698 243.588 129.709 241.032 131.907C238.493 134.104 235.14 135.203 230.974 135.203C226.416 135.203 222.827 133.673 220.207 130.613C217.603 127.537 216.301 123.321 216.301 117.966V115.793C216.301 112.375 216.903 109.364 218.107 106.76C219.312 104.156 221.029 102.162 223.259 100.779C225.505 99.379 228.109 98.6791 231.071 98.6791C235.173 98.6791 238.477 99.7778 240.983 101.975C243.49 104.172 244.938 107.257 245.329 111.228H238.005C237.826 108.933 237.183 107.273 236.076 106.247C234.986 105.206 233.317 104.685 231.071 104.685C228.63 104.685 226.799 105.564 225.578 107.322C224.374 109.063 223.755 111.773 223.723 115.452V118.137C223.723 121.978 224.3 124.786 225.456 126.56C226.628 128.334 228.467 129.221 230.974 129.221C233.236 129.221 234.921 128.708 236.027 127.683C237.15 126.641 237.793 125.038 237.956 122.873H245.28ZM257.878 134.714H250.554V99.1674H257.878V134.714ZM284.929 134.714H277.604V99.1674H284.929V134.714ZM320.646 134.714H313.322L299.064 111.326V134.714H291.74V99.1674H299.064L313.347 122.605V99.1674H320.646V134.714ZM348.43 120.188H334.367V134.714H327.043V99.1674H350.187V105.1H334.367V114.28H348.43V120.188ZM383.635 117.747C383.635 121.246 383.016 124.314 381.779 126.951C380.542 129.587 378.768 131.622 376.457 133.054C374.162 134.486 371.525 135.203 368.547 135.203C365.601 135.203 362.972 134.495 360.661 133.079C358.35 131.663 356.56 129.644 355.29 127.024C354.02 124.387 353.378 121.36 353.361 117.942V116.184C353.361 112.685 353.988 109.609 355.241 106.956C356.511 104.286 358.293 102.244 360.588 100.828C362.899 99.3953 365.536 98.6791 368.498 98.6791C371.46 98.6791 374.089 99.3953 376.384 100.828C378.695 102.244 380.477 104.286 381.73 106.956C383 109.609 383.635 112.677 383.635 116.16V117.747ZM376.213 116.135C376.213 112.408 375.546 109.576 374.211 107.639C372.876 105.702 370.972 104.734 368.498 104.734C366.04 104.734 364.144 105.694 362.81 107.615C361.475 109.519 360.799 112.318 360.783 116.013V117.747C360.783 121.376 361.45 124.192 362.785 126.194C364.12 128.196 366.04 129.197 368.547 129.197C371.004 129.197 372.893 128.236 374.211 126.316C375.529 124.379 376.197 121.563 376.213 117.869V116.135ZM180.632 184.144C180.632 182.5 181.088 180.978 181.999 179.579C182.927 178.179 184.619 176.624 187.077 174.915C186.019 173.499 185.189 172.173 184.587 170.936C183.985 169.683 183.684 168.381 183.684 167.03C183.684 164.263 184.554 162.017 186.296 160.291C188.054 158.55 190.414 157.679 193.376 157.679C196.029 157.679 198.202 158.469 199.894 160.047C201.603 161.626 202.458 163.595 202.458 165.956C202.458 168.788 201.026 171.286 198.161 173.451L195.427 175.428L201.555 182.557C202.515 180.669 202.995 178.586 202.995 176.307H209.001C209.001 180.929 207.935 184.673 205.803 187.538L211.125 193.714H203.117L201.286 191.615C198.666 193.34 195.655 194.203 192.253 194.203C188.737 194.203 185.921 193.283 183.806 191.444C181.69 189.588 180.632 187.155 180.632 184.144ZM192.595 188.539C194.287 188.539 195.891 188.067 197.404 187.122L190.397 179.017L189.885 179.383C188.436 180.62 187.712 182.077 187.712 183.753C187.712 185.169 188.159 186.325 189.055 187.22C189.966 188.099 191.146 188.539 192.595 188.539ZM190.007 166.932C190.007 168.153 190.723 169.691 192.155 171.546L194.035 170.301C194.995 169.683 195.655 169.081 196.013 168.495C196.387 167.909 196.574 167.209 196.574 166.395C196.574 165.581 196.273 164.873 195.671 164.271C195.069 163.669 194.296 163.368 193.352 163.368C192.342 163.368 191.529 163.693 190.91 164.344C190.308 164.995 190.007 165.858 190.007 166.932ZM245.768 184.388C245.768 183.005 245.28 181.947 244.304 181.214C243.327 180.466 241.569 179.684 239.03 178.871C236.491 178.04 234.481 177.227 233 176.429C228.963 174.248 226.945 171.31 226.945 167.616C226.945 165.695 227.482 163.986 228.557 162.489C229.647 160.975 231.201 159.795 233.22 158.949C235.254 158.102 237.533 157.679 240.056 157.679C242.595 157.679 244.857 158.143 246.843 159.071C248.828 159.982 250.366 161.276 251.457 162.953C252.564 164.629 253.117 166.533 253.117 168.665H245.793C245.793 167.038 245.28 165.776 244.255 164.881C243.229 163.97 241.789 163.514 239.934 163.514C238.143 163.514 236.752 163.897 235.759 164.662C234.766 165.41 234.269 166.403 234.269 167.64C234.269 168.796 234.847 169.764 236.003 170.545C237.175 171.327 238.892 172.059 241.154 172.743C245.321 173.996 248.356 175.55 250.261 177.406C252.165 179.261 253.117 181.572 253.117 184.339C253.117 187.415 251.953 189.832 249.626 191.59C247.298 193.332 244.165 194.203 240.227 194.203C237.492 194.203 235.002 193.706 232.756 192.713C230.51 191.704 228.793 190.329 227.604 188.587C226.433 186.846 225.847 184.828 225.847 182.533H233.195C233.195 186.455 235.539 188.416 240.227 188.416C241.968 188.416 243.327 188.067 244.304 187.367C245.28 186.65 245.768 185.658 245.768 184.388ZM285.002 158.167V181.581C285.002 185.47 283.781 188.547 281.34 190.809C278.915 193.071 275.594 194.203 271.379 194.203C267.228 194.203 263.933 193.104 261.491 190.907C259.05 188.709 257.805 185.69 257.756 181.849V158.167H265.08V181.629C265.08 183.957 265.633 185.658 266.74 186.732C267.863 187.79 269.409 188.319 271.379 188.319C275.497 188.319 277.588 186.154 277.653 181.825V158.167H285.002ZM298.332 181.19V193.714H291.008V158.167H304.875C307.544 158.167 309.888 158.656 311.906 159.632C313.941 160.609 315.503 162 316.594 163.807C317.684 165.597 318.229 167.64 318.229 169.935C318.229 173.418 317.033 176.169 314.641 178.187C312.264 180.189 308.968 181.19 304.753 181.19H298.332ZM298.332 175.257H304.875C306.812 175.257 308.285 174.802 309.294 173.89C310.319 172.979 310.832 171.677 310.832 169.984C310.832 168.242 310.319 166.834 309.294 165.76C308.268 164.686 306.852 164.133 305.046 164.1H298.332V175.257ZM330.607 181.19V193.714H323.283V158.167H337.15C339.82 158.167 342.163 158.656 344.182 159.632C346.216 160.609 347.779 162 348.869 163.807C349.96 165.597 350.505 167.64 350.505 169.935C350.505 173.418 349.309 176.169 346.916 178.187C344.54 180.189 341.244 181.19 337.028 181.19H330.607ZM330.607 175.257H337.15C339.087 175.257 340.56 174.802 341.569 173.89C342.595 172.979 343.107 171.677 343.107 169.984C343.107 168.242 342.595 166.834 341.569 165.76C340.544 164.686 339.128 164.133 337.321 164.1H330.607V175.257ZM384.758 176.747C384.758 180.246 384.139 183.314 382.902 185.951C381.665 188.587 379.891 190.622 377.58 192.054C375.285 193.486 372.648 194.203 369.67 194.203C366.724 194.203 364.095 193.495 361.784 192.079C359.473 190.663 357.683 188.644 356.413 186.024C355.143 183.387 354.501 180.36 354.484 176.942V175.184C354.484 171.685 355.111 168.609 356.364 165.956C357.634 163.286 359.416 161.244 361.711 159.828C364.022 158.395 366.659 157.679 369.621 157.679C372.583 157.679 375.212 158.395 377.507 159.828C379.818 161.244 381.6 163.286 382.853 165.956C384.123 168.609 384.758 171.677 384.758 175.16V176.747ZM377.336 175.135C377.336 171.408 376.669 168.576 375.334 166.639C373.999 164.702 372.095 163.734 369.621 163.734C367.163 163.734 365.267 164.694 363.933 166.615C362.598 168.519 361.922 171.318 361.906 175.013V176.747C361.906 180.376 362.574 183.192 363.908 185.194C365.243 187.196 367.163 188.197 369.67 188.197C372.128 188.197 374.016 187.236 375.334 185.316C376.652 183.379 377.32 180.563 377.336 176.869V175.135ZM403.239 180.702H397.404V193.714H390.08V158.167H403.288C407.487 158.167 410.726 159.103 413.005 160.975C415.283 162.847 416.423 165.492 416.423 168.91C416.423 171.335 415.894 173.361 414.836 174.989C413.794 176.6 412.207 177.886 410.075 178.846L417.766 193.372V193.714H409.904L403.239 180.702ZM397.404 174.769H403.312C405.152 174.769 406.576 174.305 407.585 173.377C408.594 172.433 409.099 171.139 409.099 169.496C409.099 167.819 408.618 166.501 407.658 165.54C406.714 164.58 405.257 164.1 403.288 164.1H397.404V174.769ZM447.551 164.1H436.662V193.714H429.338V164.1H418.596V158.167H447.551V164.1Z" fill="#784794"/>
</g>
<defs>
<clipPath id="clip0_1_3">
<rect width="513" height="307" fill="white"/>
</clipPath>
</defs>
</svg>
