<svg xmlns="http://www.w3.org/2000/svg" width="130" height="77.652" viewBox="0 0 130 77.652"><defs><style>.a{fill:#fff;}</style></defs><g transform="translate(-669 -1215)"><path class="a" d="M0,3.755S20.455,4.5,35.171,17.3V31.961S26.522,11.1.059,7.418L0,3.755" transform="translate(669 1217.764)"/><path class="a" d="M42.176,6.555V18.773A81.46,81.46,0,0,0,7.112,5.351v-3.7s23.83,1.082,35.064,4.909" transform="translate(674.234 1216.211)"/><path class="a" d="M47.122,1.5C38.134,1.054,17.089,0,17.089,0L17.1,2.857s17.266,1.524,30.08,4.909L47.122,1.5" transform="translate(682.196 1215)"/><path class="a" d="M34.393,24.7l.884-.361c.613-.234.613-.576.613-1.875V14.657a.9.9,0,0,0-.613-.974l-.722-.344V12.98h2.33l.217.127c.432.576,1.3,1.858,2.326,3.245L43.665,22.1c.108.161.2.288.288.288.125,0,.125-.181.125-.524V14.928c0-.849-.052-.957-.738-1.226l-.974-.363V12.98h4.1v.359l-.488.163c-1.047.361-1.028.505-1.028,1.767V22.3c0,1.12.035,2.255.035,2.616l-.108.144h-.724l-.217-.144c-.288-.361-.865-1.154-1.767-2.363L37.336,16.1c-.234-.325-.344-.488-.434-.488-.144,0-.144.2-.144.415v7c0,.776-.017,1.118.722,1.335l1.082.342v.361H34.393V24.7" transform="translate(695.365 1224.98)"/><path class="a" d="M46.953,21.1c0,.448-.017,1.276-.451,1.564a2.573,2.573,0,0,1-1.443.451,1.736,1.736,0,0,1-1.788-1.981,1.3,1.3,0,0,1,.976-1.368,10.4,10.4,0,0,1,2.255-.4c.451,0,.451.125.451.5V21.1m2.715,2.63v-.361l-.812-.252c-.559-.163-.54-.307-.54-1.207V17.558c0-1.712-.467-2.776-2.446-2.776a3.666,3.666,0,0,0-1.913.451,3.009,3.009,0,0,0-.252.234l-1.068,1.08.271.288a3.59,3.59,0,0,1,2.295-1.08c1.389,0,1.769.7,1.769,2.432a.432.432,0,0,1-.163.4c-.144.108-2.076.359-3.177.738-.288.108-1.845.828-1.845,2.269a2.272,2.272,0,0,0,2.477,2.377c1.552,0,1.877-.793,2.418-.793.217,0,.325.307.451.561Z" transform="translate(700.988 1226.345)"/><path class="a" d="M50.99,24.664a2.157,2.157,0,0,1-1.01.233c-1.509,0-1.956-.483-1.956-2.1V17.238c0-.4-.073-.524-.469-.615l-.83-.179v-.363l.92-.179c.5-.09.5-.217.628-.722l.448-1.66h.394l.325,1.84c.052.432.108.432.792.542l1.137.179v.363l-1.137.179c-.847.146-.847.2-.847.9v4.239c0,1.606.307,2.345,1.642,2.345.161,0,.432-.036.594-.056l.092.323-.722.286" transform="translate(704.736 1225.391)"/><path class="a" d="M50.381,24.916l.812-.252c.54-.181.54-.271.54-1.208v-5.21c0-.776-.017-.811-.613-.955l-.776-.2V16.8l2.642-.4.108.125v6.923c0,.92,0,1.028.561,1.208l.793.252v.361H50.381v-.361m1.1-11.294a.878.878,0,0,1,.936-.936.889.889,0,0,1,.937.936.878.878,0,0,1-.937.934.868.868,0,0,1-.936-.934" transform="translate(707.494 1224.758)"/><path class="a" d="M54.931,19c0-2.217.668-3.495,2.311-3.495,1.859,0,2.672,1.549,2.672,3.817,0,2.252-.451,3.927-2.364,3.927-1.679,0-2.618-1.279-2.618-4.25m2.167,4.97c2.8,0,4.3-1.712,4.3-5.114,0-2.828-1.43-4.073-3.741-4.073-2.075,0-4.21,1.208-4.21,4.5,0,2.811,1.031,4.684,3.651,4.684" transform="translate(709.915 1226.344)"/><path class="a" d="M58.871,23.373l.793-.252c.559-.181.559-.29.559-1.208V16.7c0-.757,0-.793-.559-.955l-.72-.2v-.288l2.427-.4c.125.307.2.759.432.766.363,0,1.069-.847,2.663-.847,1.16,0,2.522.45,2.522,2.882v4.251c0,.9,0,1.026.559,1.207l.793.252v.361H64.266v-.361l.816-.252c.543-.181.543-.271.543-1.207V18.277c0-1.585-.344-2.647-2.1-2.647a1.71,1.71,0,0,0-1.941,1.783v4.5c0,.9,0,1.026.545,1.207l.814.252v.361H58.871v-.361" transform="translate(714.37 1226.343)"/><path class="a" d="M70.144,21.1c0,.448-.017,1.276-.451,1.564a2.573,2.573,0,0,1-1.443.451,1.736,1.736,0,0,1-1.786-1.981,1.3,1.3,0,0,1,.974-1.368,10.414,10.414,0,0,1,2.255-.4c.451,0,.451.125.451.5V21.1m2.715,2.63v-.361l-.811-.252c-.559-.163-.542-.307-.542-1.207V17.558c0-1.712-.465-2.776-2.446-2.776a3.653,3.653,0,0,0-1.911.451,3.043,3.043,0,0,0-.253.234l-1.066,1.08.271.288a3.585,3.585,0,0,1,2.293-1.08c1.391,0,1.769.7,1.769,2.432a.432.432,0,0,1-.163.4c-.144.108-2.075.359-3.177.738-.288.108-1.845.828-1.845,2.269a2.272,2.272,0,0,0,2.477,2.377c1.554,0,1.878-.793,2.42-.793.217,0,.325.307.45.561Z" transform="translate(718.865 1226.345)"/><path class="a" d="M70.253,25.088l.812-.253c.54-.161.54-.288.54-1.208V14.4c0-.687-.017-.885-.557-1.029l-.8-.2v-.326l2.571-.4.144.108V23.626c0,.92-.019,1.029.559,1.208l.793.253v.361H70.253v-.361" transform="translate(722.747 1224.581)"/><path class="a" d="M44.123,34.072a6.931,6.931,0,0,1-1.154,2.092,7.081,7.081,0,0,1-3.229.6c-3.444,0-5.305-2.168-5.305-6.04,0-4.646,2.816-6.507,6.3-6.507,1.352,0,3.481.453,3.481,1.753a.925.925,0,0,1-.108.359l-.578,1.243h-.306c-.163-1.224-1.371-2.467-3.429-2.467-2.543,0-3.661,1.675-3.661,5.132,0,3.422,1.208,5.635,4.132,5.635a4.159,4.159,0,0,0,3.7-2.628l.432.215-.271.613" transform="translate(695.378 1233.626)"/><path class="a" d="M42.442,30.367c0-2.215.668-3.495,2.311-3.495,1.859,0,2.67,1.55,2.67,3.819,0,2.252-.451,3.925-2.363,3.925-1.679,0-2.618-1.278-2.618-4.25m2.167,4.972c2.8,0,4.3-1.712,4.3-5.116,0-2.828-1.43-4.071-3.741-4.071-2.075,0-4.21,1.208-4.21,4.5,0,2.809,1.031,4.684,3.651,4.684" transform="translate(700.354 1235.071)"/><path class="a" d="M46.241,36.459l.811-.253c.542-.161.542-.288.542-1.208V25.773c0-.686-.017-.884-.559-1.028l-.793-.2v-.325l2.571-.4.144.109V35c0,.92-.019,1.028.559,1.208l.793.253v.361H46.241v-.361" transform="translate(704.356 1233.329)"/><path class="a" d="M49.119,36.459l.812-.253c.542-.161.542-.288.542-1.208V25.773c0-.686-.019-.884-.561-1.028l-.793-.2v-.325l2.571-.4.144.109V35c0,.92-.019,1.028.559,1.208l.793.253v.361H49.119v-.361" transform="translate(706.556 1233.329)"/><path class="a" d="M54.312,29.853c-.505,0-.7,0-.7-.592a2.177,2.177,0,0,1,2.028-2.389,2.411,2.411,0,0,1,2.3,2.514c0,.413-.163.467-.615.467H54.312m4.722,4.222-.161-.307a4.258,4.258,0,0,1-2.206.6,3.03,3.03,0,0,1-3.1-3.248c0-.542.29-.542.814-.542h4.288c.288,0,.307,0,.488-.125.161-.108.2-.127.2-.524,0-3.357-2.005-3.772-3.163-3.772-2.281,0-4.109,1.583-4.109,4.422,0,3.068,1.34,4.765,3.746,4.765a4.355,4.355,0,0,0,2.3-.578Z" transform="translate(708.865 1235.071)"/><path class="a" d="M58.867,28.932a1.728,1.728,0,0,1,1.84-1.866,2.094,2.094,0,0,1,2.055,2.3,1.657,1.657,0,0,1-1.785,1.851,2.122,2.122,0,0,1-2.111-2.281m6.357-2.786-.2-.253-1.526.649A1.366,1.366,0,0,1,63,26.7a6.453,6.453,0,0,0-1.845-.361c-1.995,0-3.767.991-3.767,3.038a2.271,2.271,0,0,0,.741,1.76c.361.394.9.358.9.59,0,.161-.2.2-.524.378-.217.128-.4.219-.47.417A6.588,6.588,0,0,0,57.6,33.81c0,.538,1.016.682,1.016.988-.014.4-1.575.073-1.575,1.7,0,2.047,1.524,2.986,3.984,2.986,2.17,0,4.057-1.283,4.057-3.656a1.944,1.944,0,0,0-1.6-2.127A9.113,9.113,0,0,0,61.4,33.6c-1.941,0-2.536,0-2.536-.726.054-.741.757-.977,1.929-.977,1.608,0,3.453-.859,3.453-2.852a5.972,5.972,0,0,0-.292-1.4c0-.181.2-.288.326-.432ZM58.4,36.337c0-1.521,1.628-1.72,2.786-1.72,1.429,0,2.531.47,2.531,1.811a2.15,2.15,0,0,1-2.387,2.338c-1.79,0-2.93-.889-2.93-2.429" transform="translate(712.668 1234.929)"/><path class="a" d="M64.61,29.853c-.509,0-.707,0-.707-.592a2.177,2.177,0,0,1,2.026-2.389,2.411,2.411,0,0,1,2.3,2.514c0,.413-.163.467-.616.467h-3m4.72,4.222-.163-.307a4.247,4.247,0,0,1-2.2.6,3.03,3.03,0,0,1-3.1-3.248c0-.542.29-.542.814-.542h4.288c.288,0,.307,0,.486-.125.163-.108.2-.127.2-.524,0-3.357-2.005-3.772-3.163-3.772-2.281,0-4.109,1.583-4.109,4.422,0,3.068,1.34,4.765,3.746,4.765a4.355,4.355,0,0,0,2.3-.578Z" transform="translate(716.955 1235.071)"/><path class="a" d="M34.382,49.708l1.038-.354c.708-.222.731-.4.731-2.083V38.192c0-1.6,0-1.861-.731-2.1l-1.038-.333v-.425H39.75v.425l-1.061.333c-.731.243-.708.42-.708,2.1v9.079c0,1.706-.023,1.838.708,2.083l1.061.354v.425H34.382v-.425" transform="translate(695.299 1242.221)"/><path class="a" d="M38.265,48.1l.974-.311c.686-.222.686-.354.686-1.488V39.866c0-.91-.021-.953-.686-1.144l-.906-.243v-.354l3.041-.488c.134.488.2,1.021.465,1.021a7.711,7.711,0,0,0,1.394-.858,2.164,2.164,0,0,1,1.04-.288c.665,0,1.371.267,1.371.776a1.843,1.843,0,0,1-.089.377L45.048,40h-.332c-.2-.576-.332-1.087-1.417-1.087-1.371,0-1.68.733-1.68,1.708V46.3c0,1.22,0,1.309.708,1.488l1.127.311v.425H38.265V48.1" transform="translate(698.288 1243.828)"/><path class="a" d="M45.774,42.107c-.618,0-.861,0-.861-.738,0-1.229.661-2.972,2.472-2.972a2.978,2.978,0,0,1,2.805,3.128c0,.514-.2.582-.752.582H45.774m5.763,5.173-.2-.377a5.2,5.2,0,0,1-2.694.729,3.705,3.705,0,0,1-3.776-3.977c0-.663.352-.663.993-.663H51.1c.352,0,.375,0,.6-.156.2-.132.243-.155.243-.641,0-4.173-2.451-4.684-3.864-4.684-2.783,0-5.024,1.958-5.024,5.481,0,3.757,1.644,5.831,4.583,5.831a5.31,5.31,0,0,0,2.8-.7Z" transform="translate(701.964 1243.828)"/><path class="a" d="M48.907,50.177l.995-.311c.665-.2.665-.352.665-1.481v-11.3c0-.84-.023-1.083-.686-1.26l-.974-.243v-.4l3.175-.486.179.132V48.386c0,1.128-.023,1.26.684,1.481l.974.311V50.6H48.907v-.425" transform="translate(706.405 1241.753)"/><path class="a" d="M58.978,45.3c0,.566-.023,1.59-.55,1.946a3.091,3.091,0,0,1-1.753.556c-1.338,0-2.172-.891-2.172-2.448a1.611,1.611,0,0,1,1.184-1.693,12.613,12.613,0,0,1,2.741-.49c.55,0,.55.156.55.623V45.3m3.352,3.225V48.1l-.995-.311c-.686-.2-.663-.378-.663-1.489v-5.38c0-2.111-.58-3.413-3.012-3.413a4.418,4.418,0,0,0-2.324.552,3.8,3.8,0,0,0-.307.286l-1.3,1.33.333.356A4.353,4.353,0,0,1,56.85,38.7c1.689,0,2.151.868,2.151,3a.536.536,0,0,1-.2.488c-.175.134-2.522.444-3.861.911-.351.134-2.26,1.023-2.26,2.8a2.776,2.776,0,0,0,3.028,2.923c1.887,0,2.281-.955,2.939-.955.264-.012.4.359.552.658Z" transform="translate(709.352 1243.827)"/><path class="a" d="M58.908,48.1l.974-.311c.686-.22.686-.354.686-1.486V39.9c0-.93,0-.976-.686-1.175L59,38.48v-.354l3-.488c.156.377.245.93.533.892.444,0,1.307-1.021,3.258-1.021,1.418,0,3.113.543,3.113,3.536V46.3c0,1.115,0,1.269.686,1.491l.974.312v.425H65.543V48.1l1-.312c.665-.222.665-.333.665-1.491V41.8c0-1.958-.42-3.272-2.571-3.272a2.1,2.1,0,0,0-2.371,2.2V46.3c0,1.115,0,1.269.665,1.491l1,.312v.425H58.908V48.1" transform="translate(714.398 1243.827)"/><path class="a" d="M73.8,47.512c0,1.121-.243,1.588-.663,1.856a3.426,3.426,0,0,1-1.875.51c-2.316,0-3-2.09-3-5.092,0-3.067.8-4.314,2.958-4.314a3.318,3.318,0,0,1,2.029.557c.4.378.552.71.552,2.088v4.394m3.352,3.09v-.425l-.995-.311c-.663-.2-.663-.288-.663-1.486V34.824l-.2-.132-3.3.483v.4l.991.241c.8.2.818.286.818,1.255v2.113c0,.573-.045.573-.2.573a4.264,4.264,0,0,1-.793-.089,7.592,7.592,0,0,0-1.082-.078c-2.647,0-5.286,1.531-5.286,6.133,0,3.069.977,5.178,4.029,5.178,1.875,0,2.491-.976,3.022-.976.243-.014.375.4.51.679Z" transform="translate(719.943 1241.753)"/><path class="a" d="M69.188,29.65c0-.96.37-3.173,1.944-3.173.76,0,1.1.507,1.1,1.382,0,1.3-.476,3.215-1.859,3.215-.887,0-1.184-.517-1.184-1.424m.8,1.814c2.449,0,3.08-2.415,3.08-3.616,0-1.17-.526-1.764-1.644-1.764-2.08,0-3.078,1.826-3.078,3.682a1.515,1.515,0,0,0,1.642,1.7" transform="translate(721.347 1234.975)"/><path class="a" d="M71.291,34.661c.042-.191.241-.918.484-2.08.1-.484.189-.96.274-1.444l.507-3a1.812,1.812,0,0,0,.031-.252c0-.127-.031-.181-.3-.233l-.58-.106.031-.21.549-.075c.484-.062.443-.212.517-.476a4.606,4.606,0,0,1,.335-1.043,1.788,1.788,0,0,1,1.6-1.014,1.148,1.148,0,0,1,.55.083c.073.064.189.2.189.266a.735.735,0,0,1-.052.253L75.2,25.9h-.168c0-.168-.179-.727-.7-.727-.75,0-.781,1.087-.781,1.793,0,.222.042.264.349.306l.844.137-.031.212-.887.094c-.307.043-.347.054-.422.4l-.79,3.493a8.667,8.667,0,0,1-.792,2.51l-.358.54h-.179" transform="translate(723.511 1233.989)"/></g></svg>